<?xml version="1.0" encoding="utf-8"?>
<!-- Generator: Adobe Illustrator 27.5.0, SVG Export Plug-In . SVG Version: 6.00 Build 0)  -->
<svg version="1.1" xmlns="http://www.w3.org/2000/svg" xmlns:xlink="http://www.w3.org/1999/xlink" x="0px" y="0px"
	 viewBox="0 0 2500 2500" style="enable-background:new 0 0 2500 2500;" xml:space="preserve">
<g id="Background">
	<rect style="fill:#FFFFFF;" width="2500" height="2500"/>
</g>
<g id="Illustration">
	<g id="Cognitive_dissonance_1_">
		<circle style="fill:#F2E6DC;" cx="1250" cy="1250" r="915"/>
		<g>
			<g>
				<path style="fill:#D87355;" d="M1445.508,1415.275c-0.321,0-0.642-0.071-0.941-0.211c-0.691-0.326-28.422-13.397-72.38-34.212
					c-132.36-5.008-281.741-11.108-393.392-16.93c-170.557-8.893-173.617-12.839-175.262-14.959
					c-0.48-0.619-0.661-1.367-0.512-2.107c0.654-3.426,0.329-55.452-0.084-121.318c-0.25-39.936-0.476-80.256-0.633-120.131
					c-59.677-30.648-59.72-33.293-59.754-35.086c-0.075-4,24.718-63.286,59.696-144.852c0.758-164.298,4.341-291.466,14.837-301.284
					c1.083-1.011,2.175-1.156,2.894-1.104c5.37,0.393,45.601,7.459,105.336,18.682c47.569-108.912,88.561-202.184,99.187-226.348
					c0.239-0.545,0.689-0.969,1.245-1.178c0.56-0.209,1.176-0.182,1.714,0.071l837.935,395.435c0.997,0.47,1.494,1.606,1.163,2.658
					l-182.365,577.907c-0.297,0.942-1.176,1.57-2.175,1.54c-2.063-0.067-97.785-3.201-225.148-7.85
					c-5.663,18.181-9.019,28.973-9.254,29.727c-0.189,0.609-0.633,1.106-1.219,1.363
					C1446.113,1415.213,1445.809,1415.275,1445.508,1415.275z M1383.346,1381.273c22.444,10.62,42.932,20.295,60.809,28.722
					c1.275-4.093,4.093-13.155,8.145-26.164C1430.128,1383.021,1407.048,1382.165,1383.346,1381.273z M1458.226,1379.635
					c118.182,4.312,208.885,7.311,222.26,7.751l181.282-574.476l-834.145-393.647c-27.728,63.063-62.413,142.169-97.862,223.337
					c77.604,14.61,186.479,35.916,294.535,58.662c258.956,54.509,396.702,92.019,409.407,111.486
					c1.55,2.377,1.354,4.347,0.915,5.582C1622.558,852.301,1496.057,1258.156,1458.226,1379.635z M1373.216,1376.478
					c27.722,1.049,54.731,2.05,80.444,2.99c37.383-120.047,164.679-528.463,176.803-562.614c0.056-0.161,0.23-0.649-0.452-1.696
					c-11.704-17.934-156.114-56.851-406.623-109.582c-108.548-22.849-217.877-44.242-295.431-58.842
					c-43.235,99.009-87.426,200.687-121.323,279.645c-0.278,58.745-0.183,119.861,0.043,176.338
					C927.349,1164.322,1202.118,1295.476,1373.216,1376.478z M807.488,1346.355c5.389,1.98,36.222,6.109,171.535,13.164
					c108.751,5.67,253.292,11.603,383.036,16.536c-67.609-32.029-168.074-79.76-267.793-127.647
					c-152.277-73.127-238.614-115.708-287.567-140.75c0.179,43.225,0.433,83.58,0.648,117.852
					C807.811,1299.606,808.024,1338.219,807.488,1346.355z M747.058,1069.802c3.374,3.389,23.497,14.407,55.228,30.667
					c-0.213-56.404-0.284-111.811-0.088-163.753C770.516,1010.626,748.798,1062.519,747.058,1069.802z M819.972,627.506
					c-3.914,3.592-10.615,38.438-12.772,226.85c-0.226,19.681-0.392,40.044-0.508,60.753
					c34.44-80.19,77.733-179.717,116.817-269.212C865.623,635.024,826.384,628.119,819.972,627.506z"/>
				<path style="fill:#D87355;" d="M1182.154,1867.19c-0.179,0-0.357-0.021-0.534-0.066c-1.772-0.441-179.251-44.674-354.909-89.926
					c-356.58-91.861-358.397-98.165-359.271-101.195c-0.696-2.416-1.649-5.725,123.493-129.568
					c65.942-65.258,158.164-155.292,274.102-267.602c82.373-79.795,165.278-159.748,234.068-225.966
					c-88.94-19.577-150.307-34.183-156.602-39.913c-8.354-7.601,16.161-66.739,27.091-91.812
					c22.996-52.757,50.347-104.241,73.164-137.719c23.353-34.26,40.404-48.107,52.151-42.311
					c20.847,10.284,99.678,25.844,175.912,40.891c36.341,7.173,71.611,14.135,99.092,20.252l-248.445-210.195
					c-0.93-0.786-1.046-2.178-0.26-3.107c0.79-0.931,2.181-1.044,3.107-0.259l254.926,215.676
					c19.589,4.53,34.142,8.519,40.634,11.684c11.616,5.663,61.705,49.199,120.589,102.813l467.751,44.191
					c1.212,0.115,2.104,1.19,1.987,2.402c-0.114,1.212-1.219,2.1-2.401,1.988l-461.916-43.64
					c29.042,26.505,59.976,55.221,89.328,82.893c44.723,42.164,190.797,181.084,192.801,198.405
					c0.48,4.136,1.936,16.723-150.203,190.266c-74.897,85.433-151.131,168.86-151.891,169.693c-0.054,0.059-0.11,0.114-0.17,0.166
					l-342.135,301.406C1183.205,1866.999,1182.684,1867.19,1182.154,1867.19z M472.172,1674.782
					c25.913,15.495,517.814,140.049,709.392,187.785l341.176-300.562c122.107-133.566,302.945-338.636,300.891-356.389
					c-1.182-10.21-78.118-88.857-191.447-195.703c-32.988-31.102-64.887-60.653-93.591-86.79l-166.266-15.708
					c-1.518,14.943-3.154,30.611-4.86,46.268c-16.105,147.854-22.468,151.233-25.185,152.676c-0.96,0.511-2.052,0.507-2.991-0.014
					c-4.664-2.589-69.028-16.445-137.168-31.114c-34.954-7.525-67.929-14.652-97.901-21.235
					C832.406,1315.587,487.766,1649.838,472.172,1674.782z M471.697,1675.687L471.697,1675.687L471.697,1675.687z M1108.03,1050.331
					c32.14,7.051,65.152,14.157,95.023,20.588c81.281,17.498,129.049,27.856,137.467,31.156
					c6.597-9.047,18.022-102.856,27.442-195.074l-100.778-9.521C1220.108,942.596,1165.758,994.78,1108.03,1050.331z
					 M1089.505,744.298c-7.855,0-19.701,10.011-33.972,28.857c-22.873,30.211-51.94,82.681-77.75,140.357
					c-27.231,60.852-35.284,92.882-32.306,96.19c5.82,5.296,78.344,22.117,157.431,39.504
					c94.049-90.525,160.803-154.505,161.953-155.608c0.463-0.443,1.1-0.661,1.733-0.603l101.816,9.619
					c3.357-33.073,6.442-65.75,8.938-94.064l-0.166-0.142c-28.29-6.498-67.098-14.158-107.218-22.077
					c-76.516-15.103-155.638-30.721-177.008-41.263C1091.912,744.554,1090.76,744.298,1089.505,744.298z M1372.772,903.026
					l160.385,15.153c-60.155-54.637-105.284-93.317-115.219-98.159c-5.859-2.856-18.76-6.458-36.244-10.564
					C1380.952,817.798,1377.47,856.498,1372.772,903.026z"/>
				<path style="fill:#D87355;" d="M1445.723,2000.188c-0.476,0-0.949-0.154-1.344-0.456l-329.33-253.01
					c-119.362,96.266-127.518,91.005-131.346,88.541c-15.983-10.292-155.554-85.361-283.741-153.93
					c-34.999,4.249-57.928,6.989-62.809,7.571c-0.646,0.075-1.3-0.138-1.774-0.586c-0.476-0.449-0.728-1.086-0.687-1.738
					l2.39-38.852c-86.436-46.154-155.403-82.833-157.203-83.79c-0.868-0.462-1.324-1.441-1.122-2.403l55.23-261.22l-86.231-66.247
					c-0.816-0.628-1.09-1.738-0.659-2.672l44.689-96.775c-0.194-0.382-0.278-0.825-0.217-1.282c0.121-0.931,0.807-1.65,1.669-1.858
					l103.187-223.457c0.364-0.789,1.148-1.271,2.028-1.28l18.704,0.211l79.722-377.067c0.204-0.97,1.034-1.684,2.022-1.744
					l357.023-21.836l169.024-122.038c0.825-0.599,1.957-0.549,2.732,0.12c6.795,5.879,53.88,46.635,119.764,104.088l417.966-25.564
					c0.842-0.046,1.645,0.384,2.058,1.123l254.12,453.301c0.226,0.401,0.319,0.862,0.269,1.319l-38.335,349.457
					c55.674,24.587,85.374,40.694,88.722,48.157c1.942,4.329,6.453,14.356-103.049,82.448l-36.276,330.698
					c-0.077,0.712-0.497,1.341-1.124,1.688l-485.006,268.81C1446.457,2000.098,1446.089,2000.188,1445.723,2000.188z
					 M1118.579,1743.872l327.34,251.482l482.743-267.555l35.774-326.131c-0.476,0.295-0.949,0.587-1.43,0.884
					c-35.37,21.845-79.296,47.767-131.301,77.493c-5.163,48.759-8.86,82.316-9.454,87.701c-0.069,0.625-0.403,1.192-0.917,1.556
					l-320.295,227.111c-0.904,0.644-2.151,0.511-2.905-0.313c0,0-32.571-35.727-81.307-89.202
					c-51.331,27.217-84.177,44.375-84.959,44.784c-0.652,0.339-1.427,0.334-2.071-0.016l-72.402-39.254l-8.544,122.067
					c-0.084,1.215-1.118,2.132-2.356,2.045c-1.214-0.085-2.129-1.138-2.043-2.353l8.684-124.068l-56.488-30.626
					C1166.486,1704.752,1140.678,1726.007,1118.579,1743.872z M707.578,1680.408c126.725,67.8,262.677,140.95,278.511,151.147
					c2.185,1.36,17.643-0.915,124.68-87.112c0.215-0.173,0.426-0.343,0.642-0.517l-127.561-97.999
					C877.282,1659.628,773.583,1672.384,707.578,1680.408z M1420.85,1704.767c42.628,46.772,72.731,79.794,79.231,86.923
					l317.897-225.411c0.657-5.981,4.123-37.618,8.981-83.521c-35.936,20.506-75.657,42.795-119,66.771
					C1601.533,1608.401,1493.624,1666.161,1420.85,1704.767z M1257.736,1707.582l73.132,39.65
					c5.966-3.12,36.896-19.311,82.894-43.697c-13.158-14.436-27.431-30.099-42.525-46.661
					c-16.375-17.969-34.058-37.375-52.528-57.646c-10.281,1.704-21.59,3.503-33.751,5.378c-7.273,6.229-14.366,12.289-21.288,18.191
					L1257.736,1707.582z M990.051,1645.129l124.891,95.949c22.937-18.524,48.81-39.845,77.513-63.874l-87.052-47.196
					C1067.777,1635.042,1028.769,1640.143,990.051,1645.129z M1200.284,1676.433l53.193,28.839l5.493-78.469
					C1237.792,1644.842,1218.282,1661.336,1200.284,1676.433z M1323.887,1598.364c17.783,19.517,34.797,38.188,50.61,55.54
					c15.382,16.88,29.922,32.834,43.287,47.498c72.768-38.598,181.161-96.609,288.046-155.735
					c44.437-24.581,85.062-47.386,121.7-68.313c7.25-68.654,17.337-166.764,25.829-258.764
					c-43.379-17.354-90.813-35.871-139.982-54.757l4.414,58.933c0.052,0.681-0.215,1.347-0.724,1.804
					c-1.324,1.191-101.913,91.684-227.338,202.031c-48.181,81.933-97.503,150.951-106.027,158.474
					C1380.519,1587.883,1358.501,1592.539,1323.887,1598.364z M641.358,1650.012l-2.104,34.201
					c16.127-1.926,34.239-4.105,53.951-6.493C675.528,1668.266,658.15,1658.98,641.358,1650.012z M641.655,1645.173
					c19.068,10.182,38.987,20.827,59.171,31.622c77.64-9.424,178.198-21.87,278.04-34.699L657.05,1394.859L641.655,1645.173z
					 M1112.821,1629.014l83.269,45.146c19.794-16.588,40.916-34.45,63.313-53.534l0.859-12.28
					C1217.524,1614.711,1166.691,1621.784,1112.821,1629.014z M483.414,1560.824c10.49,5.579,74.686,39.734,153.965,82.065
					l15.451-251.271l-114.965-88.324L483.414,1560.824z M657.375,1389.549l327.689,251.75c38.548-4.961,76.891-9.967,113.727-14.875
					l-165.357-89.652c-0.704-0.382-1.145-1.116-1.154-1.918l-2.939-318.297c-60.053-13.409-160.467-32.879-258.19-51.013
					L657.375,1389.549z M936.677,1533.514l169.541,91.919c57.114-7.632,110.299-14.994,154.354-21.504l4.453-63.626
					c-130.302-143.037-274.571-301.515-280.576-308.594c-2.44-2.462-21.213-7.505-50.687-14.161L936.677,1533.514z
					 M1264.73,1607.678l-0.627,8.939c4.151-3.541,8.341-7.119,12.579-10.744C1272.774,1606.469,1268.795,1607.07,1264.73,1607.678z
					 M1269.131,1544.81l-4.093,58.458c6.134-0.911,12.071-1.803,17.819-2.679c6.836-5.852,13.767-11.798,20.821-17.86
					C1292.359,1570.306,1280.812,1557.632,1269.131,1544.81z M1306.651,1585.994c-5.267,4.526-10.434,8.964-15.528,13.33
					c8.576-1.323,16.659-2.598,24.193-3.82C1312.443,1592.352,1309.556,1589.183,1306.651,1585.994z M1309.995,1583.118
					c3.527,3.871,7.036,7.723,10.512,11.538c35.247-5.8,57.371-10.322,60.275-12.887c8.21-7.245,53.829-71.643,98.194-145.714
					c-37.28,32.763-76.516,67.066-115.833,101.156C1344.521,1553.359,1326.813,1568.652,1309.995,1583.118z M1269.557,1538.729
					c12.671,13.911,25.207,27.67,37.465,41.125c17.167-14.764,34.971-30.139,53.398-46.118
					c42.858-37.161,85.622-74.576,125.849-109.965c3.826-6.506,7.626-13.06,11.377-19.641
					c63.457-111.339,89.937-188.672,74.561-217.753c-8.694-16.441-21.43-49.005-35.912-89.475
					c-83.731-31.205-164.19-60.631-229.904-84.327L1269.557,1538.729z M933.72,1213.155c31.027,7.091,51.574,12.735,54.091,15.703
					c5.928,6.987,148.108,163.175,277.639,305.365l36.743-524.867c0.049-0.69,0.418-1.316,0.997-1.693
					c0.579-0.377,1.303-0.461,1.951-0.227c1.369,0.494,102.046,36.804,229.278,84.205
					c-48.379-136.049-114.722-354.608-115.598-357.497c-0.112-0.371-0.125-0.767-0.037-1.144l18.795-79.9l-242.168,65.025
					L941.829,914.547c-0.392,0.305-0.863,0.459-1.376,0.462l-9.487-0.107L933.72,1213.155z M1857.66,1220.312
					c-8.315,90.262-18.168,186.089-25.381,254.327c50.754-29.039,93.711-54.407,128.413-75.839c1.473-0.91,2.922-1.807,4.356-2.696
					l13.763-125.464C1945.196,1255.929,1903.832,1238.816,1857.66,1220.312z M1541.684,1098.91
					c13.875,38.604,26.049,69.571,34.42,85.405c20.644,39.042-29.188,142.274-74.628,221.999c-1.57,2.752-3.141,5.495-4.72,8.226
					c115.038-101.303,207.008-183.939,216.555-192.524l-4.487-59.931C1653.986,1141.041,1597.197,1119.614,1541.684,1098.91z
					 M1983.044,1272.496l-13.235,120.644c95.572-59.647,99.559-72.515,98.416-75.066
					C2065.023,1310.942,2033.165,1294.557,1983.044,1272.496z M538.875,1298.511l114.282,87.798l13.625-221.574
					c-32.902-6.098-65.421-12.03-95.918-17.516L538.875,1298.511z M451.84,1231.645l83.159,63.887l31.522-149.093
					c-7.538-1.354-14.941-2.679-22.193-3.971l-48.385-6.332L451.84,1231.645z M1858.072,1215.826
					c48.642,19.492,89.065,36.307,121.222,50.423l38.104-347.373L1764.3,467.399l-412.123,25.206
					c18.657,16.274,38.72,33.799,59.767,52.218l63.104-48.881c0.741-0.572,1.759-0.617,2.543-0.112
					c0.786,0.505,1.167,1.45,0.954,2.36l-20.476,87.058c16.491,14.476,33.348,29.295,50.345,44.265l159.126-42.728
					c0.637-0.171,1.309-0.049,1.847,0.331c0.536,0.38,0.874,0.979,0.924,1.634l14.812,197.791
					c102.427,92.104,182.599,166.855,187.095,179.078C1877.697,980.516,1869.395,1092.399,1858.072,1215.826z M1713.023,1159.092
					c52.655,20.204,99.583,38.546,140.749,55.012c11.246-122.348,19.522-232.782,14.308-246.962
					c-4.104-11.154-79.849-81.939-182.483-174.268L1713.023,1159.092z M671.422,1161.114c85.314,15.808,192.648,36.31,257.88,51.038
					l-2.745-297.299l-239.824-2.704L671.422,1161.114z M571.775,1142.909c22.866,4.118,56.662,10.249,95.281,17.395l15.264-248.206
					l-61.597-0.694L571.775,1142.909z M1539.798,1093.646c45.203,16.852,93.589,35.044,141.955,53.486
					c9.069,3.458,17.959,6.857,26.716,10.214l-27.614-368.736c-52.972-47.612-112.833-100.739-173.543-154.234l-64.898,17.426
					l-19.199,81.631C1427.092,746.201,1492.575,961.376,1539.798,1093.646z M497.881,1131.942l47.122,6.169
					c4.364,0.778,12.068,2.154,22.429,4.017l48.794-230.775l-16.396-0.185L497.881,1131.942z M930.926,910.492l8.811,0.1
					l244.653-189.507l-254.581,68.359L930.926,910.492z M687.005,907.742l239.511,2.7l-1.133-122.665
					c-0.009-1.005,0.663-1.889,1.632-2.15l266.396-71.531l215.017-166.549c-21.228-18.577-42.105-36.814-62.461-54.562
					L1057.47,510.63L695.346,772.09L687.005,907.742z M621.652,907.005l60.938,0.687l8.419-136.914
					c0.041-0.659,0.375-1.265,0.911-1.652l357.318-257.992l-348.392,21.309L621.652,907.005z M1512.386,633.013
					c56.824,50.067,115.221,101.853,167.995,149.267l-14.269-190.545L1512.386,633.013z M1411.809,550.506l-207.376,160.63
					l234.292-62.911l14.454-61.455C1439.324,574.609,1425.498,562.49,1411.809,550.506z M1456.934,590.068l-13.373,56.86
					l59.778-16.052C1487.886,617.263,1472.383,603.632,1456.934,590.068z M1415.325,547.783
					c12.695,11.113,25.719,22.528,38.989,34.17l18.513-78.712L1415.325,547.783z M1226.115,388.866l-161.962,116.938l277.08-16.947
					C1299.602,452.567,1260.443,418.568,1226.115,388.866z"/>
			</g>
		</g>
		<g>
			<g>
				<polygon style="fill:#363E44;" points="1638.296,2154.637 1500.755,1633.834 1039.089,1643.146 922.811,2154.461 
					1225.922,2155.031 1271.085,1979.86 1308.836,2154.637 				"/>
			</g>
			<g>
				<path style="fill:#E2A18D;" d="M1499.041,1193.011c93.216-22.299,355.349-96.854,388.092,14.649
					c27.084,92.23-231.599,153.302-322.726,181.438C1542.617,1323.736,1520.829,1258.374,1499.041,1193.011z"/>
				<path style="fill:#E2A18D;" d="M1046.898,1215.812c-93.216-22.299-384.37-119.655-417.114-8.152
					c-27.084,92.23,278.77,172.51,369.898,200.646C1021.471,1342.945,1025.11,1281.174,1046.898,1215.812z"/>
				<path style="fill:#8B865C;" d="M1654.234,1134.698c0,0-128.13-104.284-370.296-119.494
					c-246.22-15.465-418.21,143.815-418.21,143.815l24.355,247.768l84.716-0.377l-19.447,456.933l627.239-24.706l-30.093-437.938
					l74.336-10.632L1654.234,1134.698z"/>
				<g>
					<path style="fill:#E2A18D;" d="M1063.97,771.371c-5.469-43.294,15.996-70.764,6.629-76.821
						c-6.517-4.214-17.535,3.873-32.167,27.196l-0.004-0.003c9.077-18.995,20.26-45.294,9.732-50.273
						c-12.463-5.099-29.235,24.26-38.512,42.515c11.229-22.096,10.58-37.211,4.017-38.527c-10.329-2.07-23.032,15.398-36.738,42.808
						h-0.003c3.712-20.558,1.15-29.37-4.934-29.121c-11.11,0.456-22.147,25.262-28.351,48.555
						c-6.983,26.222-3.136,48.845-0.848,63.383v0.006c-57.186,70.599-283.438,318.076-308.614,374.476
						c-19.352,43.354-18.234,77.697,31.998,106.578c36.785,21.149,56.385,24.501,54.472,25.792
						c76.418-38.87,105.898-35.038,134.39-65.313c10.276-10.918,16.44-52.858,7.356-58.357c4.426-6,24.816-33.648,24.816-33.648
						c94.225-142.151,163.806-241.2,184.082-272.619c2.124-3.29,5.899-9.083,8.578-17.655
						C1089.799,828.579,1068.791,809.526,1063.97,771.371z"/>
					<path style="fill:#E2A18D;" d="M1060.219,807.398c26.122-34.407,42.846-41.29,48.175-36.982
						c8.961,7.244-1.299,45.735-33.133,100.824C1069.472,853.829,1066.006,824.81,1060.219,807.398z"/>
					<path style="fill:#363E44;" d="M847.076,1211.021c-0.418,0-0.842-0.118-1.216-0.367c-1.014-0.673-1.292-2.041-0.618-3.056
						c6.862-10.35,17.639-26.124,28.06-41.378c8.539-12.497,17.367-25.419,23.641-34.778c0.68-1.011,2.05-1.282,3.06-0.603
						c1.012,0.678,1.281,2.048,0.605,3.059c-6.287,9.375-15.121,22.306-23.665,34.81c-10.413,15.242-21.181,31.003-28.028,41.326
						C848.49,1210.675,847.791,1211.021,847.076,1211.021z"/>
					<g>
						<path style="fill:#363E44;" d="M998.115,846.042c-0.465,0-0.935-0.147-1.333-0.451c-0.969-0.738-1.156-2.121-0.42-3.09
							c4.466-5.864,9.973-15.59,10.85-28.624c1.245-18.443-7.786-31.98-11.726-36.945c-0.758-0.954-0.599-2.341,0.355-3.097
							c0.958-0.758,2.343-0.597,3.098,0.356c4.259,5.366,14.019,20.003,12.673,39.982c-0.952,14.126-6.912,24.655-11.741,30.999
							C999.437,845.742,998.78,846.042,998.115,846.042z"/>
						<path style="fill:#363E44;" d="M1080.823,840.558c-1.109,0-2.063-0.833-2.19-1.96c-1.016-9.115-4.261-17.979-7.695-27.364
							c-1.647-4.503-3.352-9.161-4.935-14.144c-0.368-1.161,0.273-2.4,1.434-2.769c1.171-0.37,2.403,0.275,2.769,1.434
							c1.555,4.892,3.24,9.504,4.873,13.964c3.529,9.642,6.862,18.748,7.939,28.391c0.134,1.21-0.736,2.301-1.946,2.436
							C1080.987,840.554,1080.905,840.558,1080.823,840.558z"/>
						<path style="fill:#363E44;" d="M1033.663,762.953c-1.133,0-2.097-0.867-2.194-2.016c-0.461-5.369-0.422-10.805,0.114-16.156
							c0.775-7.759,2.597-15.408,5.413-22.733c0.437-1.136,1.712-1.704,2.851-1.266c1.135,0.437,1.703,1.713,1.266,2.85
							c-2.676,6.957-4.405,14.22-5.142,21.588c-0.51,5.082-0.547,10.243-0.11,15.341c0.105,1.213-0.795,2.281-2.009,2.385
							C1033.79,762.95,1033.725,762.953,1033.663,762.953z"/>
						<path style="fill:#363E44;" d="M1006.438,752.382c-1.132,0-2.097-0.867-2.194-2.016c-0.461-5.376-0.424-10.813,0.112-16.157
							c0.777-7.757,2.597-15.405,5.413-22.731c0.439-1.137,1.72-1.705,2.849-1.267c1.137,0.437,1.705,1.712,1.268,2.849
							c-2.674,6.96-4.405,14.224-5.142,21.589c-0.508,5.074-0.545,10.236-0.108,15.341c0.105,1.213-0.794,2.281-2.009,2.385
							C1006.566,752.379,1006.501,752.382,1006.438,752.382z"/>
						<path style="fill:#363E44;" d="M971.534,759.052c-1.132,0-2.097-0.867-2.194-2.016c-0.461-5.366-0.422-10.802,0.112-16.156
							c0.78-7.768,2.601-15.416,5.415-22.733c0.437-1.136,1.71-1.704,2.851-1.266c1.135,0.437,1.703,1.713,1.266,2.85
							c-2.674,6.949-4.405,14.213-5.144,21.588c-0.508,5.083-0.545,10.245-0.108,15.34c0.106,1.213-0.794,2.281-2.009,2.385
							C971.661,759.05,971.596,759.052,971.534,759.052z"/>
					</g>
				</g>
			</g>
			<g>
				<path style="fill:#363E44;" d="M1145.995,678.026c0,0-63.015,59.79,3.668,102.203l53.079-56.49L1145.995,678.026z"/>
				<path style="fill:#E2A18D;" d="M1261.779,1090.241L1261.779,1090.241c33.825-4.584,58.03-31.963,54.063-61.152l-17.672-127.219
					c-3.968-29.188-34.604-49.134-68.43-44.55h0c-33.826,4.585-58.03,31.963-54.063,61.152l17.672,127.219
					C1197.317,1074.88,1227.954,1094.826,1261.779,1090.241z"/>
				<path style="fill:#E2A18D;" d="M1238.69,731.168c-4.724-1.276-50.145-12.81-83.209,13.96
					c-24.603,19.918-32.163,49.537-37.32,101.131c-6.074,60.757-1.205,97.924,14.105,112.702
					c24.19,23.349,113.262-4.719,152.964-51.966c28.658-34.104,34.369-83.292,17.185-124.711
					C1285.278,740.98,1241.705,731.982,1238.69,731.168z"/>
				<g>
					<path style="fill:#FFFFFF;" d="M1116.057,792.987c-0.015,0.406-0.319,0.688-0.334,1.094c-0.001,0.017,0.005,0.031,0.005,0.048
						c-1.975,5.358-4.072,11.006-6.993,15.911c-1.294,2.172-3.063,3.236-4.515,5.145c-1.065,1.401-2.078,2.745-3.183,4.082
						c-11.073-15.361-13.31-33.122-13.31-33.122S1101.671,786.608,1116.057,792.987z"/>
					<g>
						<defs>
							<path id="SVGID_1_" d="M1087.727,786.145c0,0,3.235,25.793,21.28,42.094c18.046,16.301,44.07,16.937,44.07,16.937
								s-3.235-25.793-21.281-42.094C1113.75,786.781,1087.727,786.145,1087.727,786.145z"/>
						</defs>
						<clipPath id="SVGID_00000135669902329770336550000004224395627268430001_">
							<use xlink:href="#SVGID_1_"  style="overflow:visible;"/>
						</clipPath>
						<path style="clip-path:url(#SVGID_00000135669902329770336550000004224395627268430001_);fill:#363E44;" d="M1101.526,814.653
							c-2.928,17.306,8.748,33.704,26.078,36.628c17.33,2.923,33.751-8.736,36.679-26.041c2.928-17.305-8.747-33.703-26.077-36.627
							C1120.875,785.69,1104.454,797.348,1101.526,814.653z"/>
					</g>
				</g>
				<g>
					<path style="fill:#FFFFFF;" d="M1215.195,848.441c-1.008,6.672-3.006,11.526-7.521,16.159
						c-15.692-3.622-27.088-11.94-27.088-11.94s15.051-14.849,35.492-19.348C1217.043,838.188,1215.911,843.706,1215.195,848.441z"
						/>
					<g>
						<defs>
							<path id="SVGID_00000075843038094938138560000003110604786480520119_" d="M1268.431,845.705c0,0-21.007-15.351-45.265-13.431
								c-24.258,1.92-42.58,20.385-42.58,20.385s21.007,15.351,45.265,13.431C1250.108,864.17,1268.431,845.705,1268.431,845.705z"
								/>
						</defs>
						<clipPath id="SVGID_00000001658405361890097120000011397223962527247757_">
							<use xlink:href="#SVGID_00000075843038094938138560000003110604786480520119_"  style="overflow:visible;"/>
						</clipPath>
						<path style="clip-path:url(#SVGID_00000001658405361890097120000011397223962527247757_);fill:#363E44;" d="M1263.935,836.663
							c-10.596-14.002-30.553-16.776-44.575-6.195s-16.8,30.509-6.204,44.512c10.596,14.002,30.553,16.776,44.575,6.195
							C1271.753,870.594,1274.531,850.665,1263.935,836.663z"/>
					</g>
				</g>
				<path style="fill:#363E44;" d="M1333.333,715.938c6.857,0.601-9.741,22.002,13.518,40.606
					c50.821,40.651,9.026,90.047,9.026,90.047s17.344,57.428-69.366,92.494c-5.949-19.736-16.796-69.17-13.114-89.447
					c3.654-20.128-3.934-39.688,4.199-57.165c-18.935-36.334-129.448-40.125-130.961-42.398
					c-4.471-6.712,53.041-56.767,81.781-79.937c16.216-13.073-17.84,11.123,8.949,14.617
					C1285.023,690.972,1330.897,701.543,1333.333,715.938z"/>
				<g>
					<path style="fill:#E2A18D;" d="M1267.129,861.794c-11.224,16.07-9.295,36.777,4.306,46.25
						c13.603,9.473,33.728,4.126,44.952-11.945c11.224-16.07,9.295-36.776-4.307-46.249
						C1298.478,840.376,1278.352,845.724,1267.129,861.794z"/>
					<path style="fill:#363E44;" d="M1301.938,892.671c-0.56,0-1.122-0.212-1.55-0.638c-0.866-0.856-0.874-2.253-0.017-3.118
						c0.76-0.767,1.466-1.614,2.097-2.517c2.711-3.88,3.837-8.523,3.086-12.734c-0.577-3.24-2.257-5.973-4.728-7.695
						c-1.406-0.979-3.001-1.605-4.743-1.858c-1.203-0.175-2.039-1.295-1.862-2.499c0.174-1.205,1.283-2.04,2.5-1.864
						c2.425,0.353,4.655,1.229,6.627,2.604c3.439,2.395,5.764,6.138,6.548,10.54c0.956,5.354-0.435,11.199-3.811,16.034
						c-0.777,1.109-1.645,2.148-2.577,3.091C1303.075,892.453,1302.507,892.671,1301.938,892.671z"/>
				</g>
				<path style="fill:#363E44;" d="M1143.62,878.348c-0.844,0-1.649-0.486-2.015-1.305c-1.654-3.701-1.949-7.061-0.872-9.987
					c1.186-3.237,3.619-4.797,6.192-6.449c1.69-1.084,3.604-2.311,5.493-4.227c2.392-2.432,4.259-5.484,5.544-9.067
					c0.411-1.147,1.675-1.742,2.821-1.331c1.146,0.411,1.742,1.674,1.331,2.82c-1.503,4.19-3.708,7.78-6.554,10.673
					c-2.235,2.268-4.464,3.696-6.253,4.845c-2.47,1.584-3.787,2.493-4.436,4.257c-0.665,1.811-0.409,4.054,0.76,6.668
					c0.497,1.112-0.002,2.416-1.113,2.913C1144.225,878.286,1143.919,878.348,1143.62,878.348z"/>
				<path style="fill:#363E44;" d="M1180.587,910.753c-0.553,0-1.107-0.207-1.535-0.622c-2.386-2.313-6.44-5.305-12.202-6.422
					c-8.367-1.622-15.078,1.815-17.574,3.368c-1.031,0.644-2.392,0.328-3.036-0.706c-0.644-1.034-0.327-2.394,0.706-3.037
					c2.937-1.828,10.822-5.877,20.743-3.953c6.826,1.323,11.616,4.855,14.432,7.585c0.874,0.848,0.896,2.244,0.047,3.118
					C1181.737,910.529,1181.162,910.753,1180.587,910.753z"/>
				<path style="fill:#363E44;" d="M1163.181,969.489c-1.115,0-2.071-0.842-2.19-1.974c-0.127-1.211,0.751-2.296,1.962-2.423
					c64.754-6.801,85.409-31.003,85.609-31.246c0.777-0.94,2.164-1.073,3.101-0.304c0.941,0.77,1.081,2.153,0.314,3.095
					c-0.857,1.051-21.747,25.823-88.563,32.842C1163.336,969.485,1163.256,969.489,1163.181,969.489z"/>
				<path style="fill:#363E44;" d="M1353.107,756.742l-78.591,51.471c0,0-2.336-44.118-55.179-46.771
					c-166.913-8.381-160.526-76.811-89.778-147.325c0,0,2.242,28.119,61.435,36.156
					C1231.488,655.772,1394.411,646.004,1353.107,756.742z"/>
				<path style="fill:#84524D;" d="M1277.597,794.679c-0.816,0-1.598-0.453-1.981-1.234c-0.536-1.093-0.086-2.414,1.008-2.951
					l57.607-28.276c1.098-0.538,2.414-0.083,2.95,1.008c0.536,1.093,0.086,2.414-1.008,2.951l-57.607,28.276
					C1278.254,794.607,1277.922,794.679,1277.597,794.679z"/>
			</g>
			<g>
				<path style="fill:#E2A18D;" d="M1374.285,833.611c-2.642-43.557-15.1-73.443-7.017-81.125
					c5.624-5.345,15.237,8.18,25.522,34.836c0,0-1.277-5.552-1.885-7.349c-6.305-18.656-9.654-52.657-2.723-55.413
					c13.917-2.964,29.025,40.618,35.458,60.098c-7.848-23.763-6.913-61.297,1.207-62.898c10.335-2.039,18.53,28.37,29.872,57.794
					l-2.298-14.595c-3.81-22.034,0.578-35.601,6.603-36.48c11.003-1.604,21.529,27.41,27.21,50.056
					c6.603,26.32,12.406,47.139,12.406,61.926v0.006c68.623,58.763,337.572,260.235,372.759,311.013
					c27.047,39.033,26.218,93.236-12.293,121.059c-34.389,24.846-68.917,32.862-66.798,33.777
					c-82.298-24.088-90.422-37.213-124.029-61.705c-12.121-8.833-27.348-35.371-19.439-42.453
					c-5.461-5.08-30.616-28.485-30.616-28.485c-118.925-122.299-205.647-206.791-231.392-233.924
					c-2.697-2.841-7.478-7.837-11.699-15.766C1359.495,894.602,1376.613,871.998,1374.285,833.611z"/>
				<path style="fill:#E2A18D;" d="M1384.644,868.325c-32.044-28.99-49.754-32.665-54.193-27.448
					c-7.465,8.774,9.747,44.706,51.233,92.967C1384.148,915.664,1382.18,886.505,1384.644,868.325z"/>
				<path style="fill:#363E44;" d="M1667.992,1224.418c-0.575,0-1.148-0.223-1.58-0.668c-8.126-8.354-22.679-22.516-36.752-36.212
					c-13.324-12.965-27.102-26.372-35.578-34.998c-0.855-0.868-0.842-2.265,0.026-3.118c0.87-0.854,2.265-0.842,3.118,0.027
					c8.445,8.591,22.203,21.98,35.51,34.929c14.094,13.717,28.669,27.9,36.838,36.297c0.848,0.873,0.829,2.269-0.043,3.118
					C1669.101,1224.21,1668.545,1224.418,1667.992,1224.418z"/>
				<g>
					<path style="fill:#363E44;" d="M1434.559,893.408c-0.698,0-1.382-0.329-1.811-0.943c-3.495-5.01-7.721-13.262-7.999-24.12
						c-0.39-15.354,7.553-26.246,10.985-30.217c0.799-0.922,2.19-1.021,3.111-0.226c0.922,0.796,1.021,2.189,0.226,3.11
						c-3.098,3.582-10.266,13.406-9.913,27.221c0.248,9.763,4.057,17.194,7.207,21.708c0.695,0.998,0.452,2.373-0.547,3.07
						C1435.435,893.279,1434.994,893.408,1434.559,893.408z"/>
					<path style="fill:#363E44;" d="M1402.245,815.065c-0.84,0-1.641-0.481-2.011-1.295c-1.667-3.681-3.751-9.596-5.766-15.316
						c-1.266-3.598-2.577-7.318-3.736-10.342c-0.437-1.137,0.131-2.412,1.268-2.848c1.141-0.436,2.412,0.132,2.849,1.269
						c1.182,3.081,2.502,6.83,3.779,10.456c1.983,5.631,4.035,11.454,5.624,14.96c0.502,1.109,0.011,2.416-1.098,2.919
						C1402.858,815.001,1402.548,815.065,1402.245,815.065z"/>
					<path style="fill:#363E44;" d="M1426.547,798.057c-1.04,0-1.964-0.737-2.164-1.796c-1.58-8.353-3.484-12.819-5.165-16.758
						c-0.797-1.873-1.552-3.642-2.19-5.633c-0.372-1.16,0.267-2.401,1.425-2.773c1.163-0.376,2.403,0.268,2.773,1.426
						c0.577,1.797,1.292,3.474,2.048,5.25c1.682,3.941,3.772,8.846,5.441,17.669c0.226,1.196-0.56,2.35-1.757,2.576
						C1426.821,798.044,1426.683,798.057,1426.547,798.057z"/>
					<path style="fill:#363E44;" d="M1459.318,795.304c-1.005,0-1.916-0.694-2.149-1.717c-0.853-3.761-2.205-7.376-3.77-11.561
						c-0.87-2.326-1.798-4.809-2.734-7.565c-0.392-1.153,0.226-2.405,1.38-2.797c1.158-0.395,2.405,0.226,2.797,1.378
						c0.919,2.71,1.832,5.151,2.689,7.44c1.619,4.334,3.019,8.078,3.94,12.129c0.269,1.187-0.476,2.368-1.662,2.638
						C1459.645,795.286,1459.479,795.304,1459.318,795.304z"/>
				</g>
			</g>
		</g>
		<g>
			<g>
				<g>
					<path style="fill:#FFFFFF;" d="M1820.812,695.867c0.867-9.403,3.247-33.949,3.247-33.949s22.949,2.982,32.36,3.85
						c14.83,1.367,28.424,0.345,40.78-3.082c12.354-3.419,22.526-9.869,30.513-19.35c7.987-9.473,12.748-22.536,14.282-39.179
						c1.133-12.294-0.851-23.422-5.953-33.383c-5.102-9.953-12.558-18.122-22.368-24.498c-9.809-6.376-21.226-10.165-34.249-11.365
						c-10.132-0.934-19.795,0.006-28.988,2.801c-9.202,2.803-17.698,6.945-25.496,12.426c-6.258,4.536-14.841,12.623-14.841,12.623
						l-44.318-46.234c0,0,5.434-6.911,13.731-13.808c14.256-12.178,30.493-21.174,48.727-26.975
						c18.224-5.793,37.287-7.781,57.186-5.948c24.961,2.301,46.954,10.073,65.982,23.319c19.027,13.246,33.626,30.008,43.797,50.278
						c10.17,20.278,14.138,42.533,11.905,66.765c-1.667,18.093-5.856,33.85-12.565,47.272c-6.71,13.43-15.5,24.659-26.362,33.687
						c-10.872,9.036-23.178,15.923-36.929,20.675c-13.76,4.751-28.075,7.557-43.857,8.65c-1.533-0.029-3.187,0.018-3.177-0.047
						l-5.094,55.571l-64.237-6.781L1820.812,695.867z M1834.852,870.086c-10.496-0.967-18.284-4.507-23.371-10.636
						c-5.097-6.122-7.153-14.425-6.186-24.922l0.85-9.225c0.967-10.488,4.506-18.276,10.637-23.371
						c6.12-5.088,14.426-7.153,24.921-6.185l7.055,0.65c10.488,0.967,18.275,4.515,23.371,10.636
						c5.087,6.129,7.152,14.434,6.186,24.922l-0.85,9.225c-0.968,10.497-4.516,18.284-10.637,23.372
						c-6.13,5.095-14.433,7.152-24.921,6.185L1834.852,870.086z"/>
				</g>
				<g>
					<path style="fill:#EFBC73;" d="M1829.508,861.875c-1.621,0-3.29-0.079-5.015-0.238l-7.056-0.65
						c-11.052-1.019-19.417-4.862-24.865-11.424c-5.454-6.55-7.704-15.478-6.685-26.533l0.85-9.225
						c1.019-11.045,4.862-19.411,11.422-24.864c6.565-5.454,15.496-7.703,26.535-6.685l7.054,0.65
						c11.037,1.017,19.402,4.86,24.862,11.422c5.456,6.571,7.704,15.498,6.688,26.534l-0.85,9.225
						c-1.018,11.045-4.862,19.41-11.422,24.865C1845.489,859.555,1838.265,861.875,1829.508,861.875z M1817.842,856.596l7.056,0.65
						c9.844,0.909,17.68-1.006,23.308-5.685c5.63-4.679,8.946-12.04,9.851-21.878l0.85-9.225c0.906-9.83-1.005-17.673-5.686-23.311
						c-4.683-5.628-12.045-8.943-21.876-9.849l-7.054-0.65c-9.829-0.905-17.679,1.006-23.31,5.685
						c-5.631,4.679-8.944,12.039-9.851,21.878l-0.85,9.225c-0.906,9.846,1.005,17.689,5.684,23.309
						C1800.639,852.375,1807.998,855.689,1817.842,856.596z M1861.913,766.875c-0.078,0-0.155-0.004-0.23-0.012l-64.239-6.781
						c-1.189-0.125-2.061-1.177-1.966-2.37l5.923-73.318c0.002-0.008,0.002-0.017,0.002-0.025
						c0.868-9.406,3.251-33.959,3.251-33.959c0.058-0.594,0.353-1.14,0.82-1.512c0.465-0.372,1.068-0.538,1.658-0.462
						c0.228,0.03,23.015,2.987,32.278,3.841c14.506,1.337,27.965,0.325,39.988-3.011c11.859-3.282,21.757-9.555,29.416-18.646
						c7.655-9.078,12.288-21.85,13.772-37.961c1.089-11.816-0.835-22.641-5.719-32.175c-4.901-9.562-12.172-17.521-21.607-23.655
						c-9.461-6.149-20.646-9.856-33.249-11.018c-9.784-0.902-19.256,0.011-28.144,2.714c-8.929,2.719-17.296,6.797-24.871,12.12
						c-6.046,4.383-14.512,12.344-14.598,12.424c-0.883,0.829-2.265,0.795-3.103-0.079l-44.316-46.234
						c-0.76-0.793-0.82-2.025-0.142-2.888c0.228-0.29,5.674-7.174,14.052-14.141c14.405-12.304,31.057-21.522,49.471-27.38
						c18.437-5.861,37.966-7.894,58.057-6.042c25.228,2.325,47.783,10.3,67.038,23.705c19.241,13.394,34.216,30.586,44.508,51.099
						c10.309,20.557,14.392,43.421,12.131,67.956c-1.684,18.279-5.988,34.447-12.79,48.056
						c-6.813,13.635-15.871,25.208-26.923,34.397c-11.022,9.158-23.678,16.245-37.618,21.063
						c-13.871,4.789-28.402,7.656-44.426,8.766c-0.504-0.004-0.937-0.006-1.322-0.006l-4.907,53.531
						c-0.054,0.587-0.342,1.129-0.797,1.503C1862.916,766.7,1862.421,766.875,1861.913,766.875z M1800.046,755.923l59.875,6.321
						l4.89-53.345c0.082-0.891,0.696-1.642,1.55-1.905c0.34-0.104,0.687-0.121,1.016-0.065c0.213,0.007,0.562,0.004,0.977,0.003
						c0.562-0.001,1.225-0.001,1.873,0.011c15.436-1.078,29.597-3.87,43.095-8.53c13.436-4.644,25.629-11.469,36.24-20.286
						c10.578-8.796,19.26-19.891,25.797-32.977c6.556-13.117,10.71-28.758,12.342-46.489c2.185-23.703-1.744-45.765-11.679-65.575
						c-9.961-19.848-24.458-36.488-43.087-49.457c-18.622-12.963-40.466-20.679-64.924-22.933
						c-19.501-1.796-38.447,0.172-56.318,5.853c-17.849,5.679-33.987,14.612-47.964,26.55c-5.788,4.813-10.184,9.669-12.206,12.027
						l41.452,43.247c2.803-2.573,8.724-7.886,13.457-11.316c7.984-5.611,16.773-9.894,26.15-12.75
						c9.437-2.87,19.479-3.842,29.832-2.887c13.322,1.228,25.181,5.168,35.247,11.711c10.09,6.559,17.871,15.085,23.127,25.341
						c5.273,10.291,7.353,21.929,6.188,34.59c-1.57,17.026-6.546,30.618-14.792,40.398c-8.242,9.784-18.879,16.531-31.61,20.054
						c-12.542,3.478-26.529,4.539-41.571,3.152c-7.601-0.7-24.147-2.794-30.183-3.568c-0.607,6.287-2.319,23.995-3.027,31.663
						L1800.046,755.923z"/>
				</g>
			</g>
			<g>
				<g>
					<path style="fill:#FFFFFF;" d="M573.402,828.25c-2.688-9.052-9.594-32.727-9.594-32.727s22.415-5.755,31.475-8.445
						c14.276-4.239,26.519-10.237,36.718-18.008c10.201-7.763,17.249-17.529,21.143-29.299c3.897-11.762,3.466-25.659-1.292-41.681
						c-3.514-11.835-9.49-21.43-17.926-28.783c-8.434-7.346-18.39-12.161-29.867-14.438c-11.476-2.277-23.483-1.554-36.02,2.169
						c-9.754,2.896-18.377,7.357-25.874,13.367c-7.502,6.02-13.853,13.022-19.057,21.007c-4.126,6.536-9.091,17.232-9.091,17.232
						l-58.32-26.466c0,0,2.479-8.435,7.62-17.92c8.713-16.603,20.447-30.985,35.223-43.144
						c14.769-12.148,31.73-21.074,50.886-26.762c24.03-7.135,47.337-8.087,69.923-2.856c22.586,5.231,42.366,15.372,59.338,30.414
						c16.974,15.05,28.925,34.239,35.852,57.567c5.172,17.418,7.136,33.604,5.892,48.557c-1.242,14.961-5.232,28.652-11.964,41.069
						c-6.738,12.428-15.606,23.393-26.608,32.912c-11.011,9.522-23.26,17.444-37.507,24.321c-1.435,0.542-2.952,1.201-2.967,1.136
						l15.911,53.488l-62.16,17.563L573.402,828.25z M651.148,984.792c-10.104,3-18.65,2.607-25.649-1.195
						c-7.006-3.791-12-10.737-15-20.842l-2.637-8.881c-2.998-10.096-2.604-18.642,1.195-25.65
						c3.793-6.997,10.737-11.999,20.841-14.999l6.792-2.017c10.096-2.998,18.644-2.596,25.65,1.195c7,3.801,12.002,10.745,15,20.841
						l2.637,8.881c3,10.105,2.598,18.653-1.195,25.651c-3.799,7.008-10.745,12.001-20.841,14.999L651.148,984.792z"/>
				</g>
				<g>
					<path style="fill:#EFBC73;" d="M618.509,984.88c-5.256,0-10.016-1.148-14.239-3.44c-7.497-4.057-12.902-11.51-16.06-22.151
						l-2.638-8.881c-3.159-10.632-2.696-19.827,1.372-27.329c4.063-7.499,11.517-12.903,22.149-16.061l6.795-2.017
						c10.621-3.154,19.815-2.695,27.323,1.369c7.506,4.075,12.91,11.528,16.067,22.153l2.635,8.881
						c3.156,10.632,2.696,19.827-1.372,27.328c-4.065,7.5-11.517,12.904-22.149,16.062l-6.793,2.016l-0.627-2.114l0.627,2.114
						C626.953,984.191,622.583,984.88,618.509,984.88z M628.947,907.349c-3.643,0-7.583,0.626-11.804,1.879l-6.795,2.017
						c-9.472,2.813-16.041,7.502-19.529,13.936c-3.49,6.437-3.833,14.501-1.018,23.972l2.638,8.881
						c2.812,9.478,7.502,16.049,13.933,19.53c6.436,3.492,14.497,3.833,23.975,1.02l0,0l6.791-2.016
						c9.469-2.813,16.041-7.502,19.529-13.936c3.488-6.436,3.833-14.501,1.018-23.972l-2.635-8.881
						c-2.81-9.463-7.502-16.034-13.94-19.531C637.542,908.316,633.475,907.349,628.947,907.349z M574.959,896.634
						c-0.943,0-1.815-0.609-2.106-1.554l-21.732-70.273c-0.002-0.008-0.006-0.016-0.009-0.024
						c-2.689-9.055-9.597-32.737-9.597-32.737c-0.168-0.573-0.095-1.19,0.2-1.709c0.297-0.518,0.79-0.895,1.367-1.044
						c0.224-0.058,22.479-5.776,31.397-8.424c13.967-4.148,26.081-10.085,36.007-17.648c9.795-7.452,16.652-16.953,20.388-28.239
						c3.734-11.269,3.292-24.849-1.313-40.361c-3.376-11.373-9.183-20.709-17.262-27.749c-8.102-7.058-17.809-11.747-28.846-13.937
						c-11.072-2.195-22.83-1.483-34.965,2.12c-9.42,2.797-17.871,7.162-25.123,12.974c-7.282,5.844-13.537,12.738-18.588,20.49
						c-3.983,6.312-8.888,16.851-8.938,16.957c-0.508,1.096-1.809,1.581-2.911,1.08l-58.32-26.466
						c-1.001-0.454-1.514-1.575-1.204-2.629c0.103-0.354,2.603-8.769,7.797-18.349c8.804-16.774,20.838-31.518,35.757-43.796
						c14.943-12.29,32.325-21.432,51.663-27.173c24.283-7.212,48.192-8.184,71.047-2.891c22.841,5.29,43.128,15.69,60.301,30.912
						c17.208,15.257,29.49,34.969,36.504,58.589c5.224,17.599,7.235,34.208,5.975,49.367c-1.26,15.192-5.372,29.301-12.223,41.937
						c-6.825,12.594-15.946,23.874-27.104,33.529c-11.095,9.596-23.521,17.655-37.99,24.64c-0.467,0.182-0.87,0.342-1.227,0.485
						l15.324,51.524c0.17,0.566,0.103,1.175-0.181,1.692c-0.284,0.517-0.764,0.898-1.333,1.059l-62.159,17.563
						C575.358,896.607,575.157,896.634,574.959,896.634z M555.338,823.516l21.092,68.207l57.939-16.371l-15.272-51.344
						c-0.256-0.861,0.037-1.79,0.736-2.35c0.273-0.217,0.586-0.362,0.913-0.432c0.194-0.071,0.515-0.202,0.898-0.356
						c0.521-0.21,1.146-0.46,1.753-0.69c13.935-6.736,26.047-14.588,36.842-23.926c10.755-9.305,19.54-20.171,26.113-32.295
						c6.556-12.096,10.494-25.622,11.707-40.201c1.212-14.612-0.741-30.676-5.811-47.747c-6.774-22.818-18.618-41.843-35.2-56.545
						c-16.618-14.728-36.257-24.794-58.372-29.916c-22.111-5.12-45.255-4.169-68.799,2.822
						c-18.767,5.573-35.628,14.439-50.114,26.352c-14.461,11.901-26.126,26.189-34.668,42.466
						c-3.596,6.634-5.872,12.765-6.869,15.701l54.552,24.756c1.647-3.43,5.17-10.562,8.29-15.505
						c5.325-8.171,11.894-15.412,19.542-21.549c7.698-6.171,16.657-10.8,26.628-13.761c12.824-3.809,25.299-4.555,37.075-2.218
						c11.801,2.341,22.195,7.367,30.887,14.938c8.718,7.598,14.973,17.63,18.592,29.818c4.866,16.393,5.292,30.861,1.27,43.002
						c-4.02,12.146-11.388,22.361-21.902,30.361c-10.352,7.887-22.944,14.067-37.426,18.367c-7.316,2.172-23.456,6.374-29.347,7.898
						C548.157,799.058,553.144,816.133,555.338,823.516z"/>
				</g>
			</g>
			<g>
				<g>
					<path style="fill:#FFFFFF;" d="M807.286,561.692c2.27-7.225,8.288-26.067,8.288-26.067s17.488,6.22,24.72,8.492
						c11.395,3.58,22.227,5.079,32.493,4.481c10.264-0.591,19.33-3.927,27.196-10.01c7.864-6.076,13.807-15.512,17.824-28.301
						c2.968-9.447,3.294-18.507,0.979-27.179c-2.317-8.666-6.78-16.332-13.393-22.99c-6.612-6.658-14.922-11.56-24.93-14.703
						c-7.786-2.446-15.52-3.344-23.201-2.707c-7.688,0.641-15.051,2.451-22.091,5.429c-5.674,2.498-13.771,7.386-13.771,7.386
						l-26.926-43.744c0,0,5.429-4.499,13.1-8.503c13.237-7.137,27.489-11.443,42.766-12.907c15.268-1.459,30.55,0.206,45.841,5.01
						c19.181,6.026,35.109,15.84,47.786,29.443c12.677,13.603,21.287,29.214,25.833,46.827c4.543,17.619,3.891,35.738-1.959,54.359
						c-4.368,13.903-10.317,25.549-17.847,34.937c-7.532,9.394-16.323,16.711-26.366,21.952c-10.052,5.246-20.865,8.563-32.45,9.963
						c-11.591,1.398-23.289,1.176-35.848-0.637c-1.197-0.282-2.502-0.525-2.483-0.574l-13.393,42.707l-49.216-16.182
						L807.286,561.692z M788.826,700.658c-8.065-2.534-13.573-6.626-16.524-12.292c-2.961-5.662-3.168-12.52-0.634-20.586
						l2.227-7.089c2.532-8.059,6.624-13.566,12.293-16.524c5.659-2.954,12.52-3.168,20.585-0.634l5.421,1.703
						c8.059,2.532,13.564,6.631,16.524,12.292c2.952,5.666,3.166,12.526,0.634,20.585l-2.227,7.089
						c-2.534,8.066-6.633,13.571-12.293,16.525c-5.668,2.958-12.526,3.166-20.585,0.634L788.826,700.658z"/>
				</g>
				<g>
					<path style="fill:#EFBC73;" d="M793.053,694.545c-3.441,0-7.131-0.616-11.052-1.847l-5.419-1.703v0
						c-8.608-2.705-14.605-7.205-17.819-13.377c-3.223-6.164-3.486-13.655-0.782-22.265l2.226-7.089
						c2.702-8.603,7.205-14.598,13.375-17.818c6.171-3.222,13.662-3.487,22.266-0.783l5.422,1.703
						c8.595,2.701,14.59,7.2,17.817,13.375c3.221,6.183,3.484,13.674,0.784,22.267l-2.226,7.089
						c-2.702,8.601-7.202,14.596-13.375,17.818C800.908,693.667,797.159,694.545,793.053,694.545z M784.813,632.229
						c-3.404,0-6.474,0.709-9.19,2.126c-5.099,2.66-8.869,7.784-11.209,15.23l-2.226,7.089c-2.34,7.452-2.179,13.812,0.482,18.903
						c2.657,5.099,7.781,8.869,15.234,11.21l0,0l5.419,1.703c7.441,2.337,13.802,2.177,18.905-0.485
						c5.099-2.661,8.871-7.786,11.209-15.231l2.226-7.088c2.338-7.439,2.172-13.799-0.487-18.906
						c-2.666-5.098-7.788-8.87-15.229-11.207l-5.422-1.703C791.047,632.776,787.802,632.229,784.813,632.229z M827.872,624.792
						c-0.233,0-0.465-0.037-0.689-0.11L777.968,608.5c-1.137-0.374-1.768-1.586-1.421-2.732l17.044-56.48
						c0.002-0.008,0.004-0.016,0.006-0.024c2.269-7.228,8.294-26.078,8.294-26.078c0.181-0.569,0.586-1.04,1.12-1.305
						c0.536-0.265,1.156-0.302,1.718-0.102c0.174,0.062,17.533,6.232,24.641,8.466c11.102,3.487,21.764,4.961,31.705,4.384
						c9.765-0.562,18.504-3.776,25.976-9.553c7.463-5.766,13.205-14.923,17.068-27.218c2.827-8.995,3.148-17.726,0.954-25.95
						c-2.207-8.252-6.522-15.656-12.828-22.005c-6.326-6.371-14.409-11.133-24.025-14.153c-7.465-2.345-14.995-3.225-22.356-2.614
						c-7.415,0.618-14.62,2.389-21.415,5.263c-5.452,2.4-13.412,7.195-13.492,7.243c-1.034,0.626-2.384,0.298-3.017-0.732
						l-26.925-43.744c-0.575-0.936-0.375-2.152,0.472-2.853c0.228-0.19,5.697-4.695,13.485-8.76
						c13.421-7.235,28.09-11.663,43.575-13.147c15.505-1.481,31.221,0.235,46.712,5.101c19.458,6.113,35.856,16.22,48.739,30.043
						c12.869,13.809,21.738,29.884,26.357,47.779c4.625,17.943,3.955,36.639-1.992,55.57c-4.431,14.105-10.565,26.101-18.231,35.656
						c-7.687,9.586-16.792,17.165-27.065,22.527c-10.236,5.341-21.406,8.772-33.206,10.198c-11.722,1.413-23.635,1.203-36.427-0.643
						c-0.248-0.055-0.472-0.104-0.676-0.149l-12.783,40.759c-0.177,0.563-0.571,1.032-1.096,1.301
						C828.565,624.71,828.219,624.792,827.872,624.792z M781.39,604.983l45.048,14.812l12.725-40.574
						c0.269-0.857,1.031-1.464,1.927-1.536c0.344-0.027,0.665,0.024,0.965,0.139c0.164,0.039,0.422,0.093,0.726,0.159
						c0.444,0.094,0.969,0.207,1.475,0.327c12.208,1.754,23.747,1.96,35.077,0.594c11.27-1.362,21.934-4.635,31.694-9.729
						c9.73-5.077,18.364-12.27,25.665-21.377c7.321-9.126,13.197-20.639,17.464-34.219c5.697-18.133,6.345-36.014,1.927-53.147
						c-4.431-17.174-12.947-32.608-25.31-45.874c-12.357-13.257-28.114-22.961-46.835-28.843
						c-14.926-4.689-30.056-6.344-44.971-4.918c-14.896,1.428-29.003,5.685-41.928,12.653c-5.062,2.642-9.147,5.525-11.233,7.09
						l24.755,40.216c2.763-1.611,8.023-4.59,12.139-6.404c7.256-3.069,14.917-4.952,22.797-5.609
						c7.943-0.657,16.032,0.284,24.044,2.801c10.305,3.237,18.995,8.369,25.833,15.253c6.853,6.902,11.549,14.969,13.957,23.974
						c2.416,9.046,2.076,18.605-1.006,28.41c-4.138,13.171-10.389,23.058-18.579,29.385c-8.186,6.331-17.748,9.853-28.417,10.466
						c-10.473,0.61-21.669-0.932-33.281-4.579c-5.674-1.783-17.738-6.022-22.649-7.758c-1.645,5.155-5.79,18.149-7.59,23.877
						L781.39,604.983z"/>
				</g>
			</g>
			<g>
				<g>
					<path style="fill:#FFFFFF;" d="M1810.296,1848.062c-3.231-10.882-11.534-39.343-11.534-39.343s26.947-6.919,37.839-10.153
						c17.163-5.096,31.881-12.307,44.141-21.649c12.263-9.332,20.736-21.073,25.418-35.223c4.685-14.14,4.167-30.846-1.553-50.108
						c-4.225-14.228-11.408-25.762-21.551-34.603c-10.139-8.831-22.108-14.62-35.905-17.357
						c-13.796-2.737-28.231-1.868-43.303,2.608c-11.726,3.482-22.092,8.845-31.105,16.07c-9.019,7.237-16.654,15.655-22.91,25.254
						c-4.96,7.858-10.929,20.716-10.929,20.716l-70.111-31.817c0,0,2.98-10.14,9.16-21.543
						c10.475-19.959,24.582-37.25,42.344-51.867c17.755-14.604,38.145-25.335,61.175-32.173c28.888-8.578,56.908-9.723,84.06-3.434
						c27.152,6.288,50.932,18.48,71.335,36.563c20.406,18.094,34.773,41.162,43.1,69.206c6.218,20.94,8.578,40.398,7.083,58.375
						c-1.493,17.986-6.29,34.445-14.383,49.372c-8.1,14.941-18.761,28.122-31.987,39.567c-13.237,11.447-27.962,20.97-45.09,29.238
						c-1.725,0.652-3.549,1.443-3.567,1.366l19.128,64.302l-74.728,21.114L1810.296,1848.062z M1903.761,2036.253
						c-12.147,3.607-22.421,3.134-30.835-1.436c-8.423-4.557-14.426-12.907-18.033-25.056l-3.17-10.676
						c-3.604-12.138-3.131-22.411,1.437-30.836c4.56-8.412,12.908-14.425,25.055-18.032l8.165-2.424
						c12.138-3.604,22.414-3.121,30.836,1.437c8.415,4.569,14.428,12.917,18.033,25.055l3.17,10.676
						c3.607,12.148,3.124,22.424-1.437,30.837c-4.567,8.425-12.917,14.427-25.055,18.032L1903.761,2036.253z"/>
				</g>
				<g>
					<path style="fill:#EFBC73;" d="M1864.525,2035.913c-6.246,0-11.898-1.361-16.906-4.081c-8.905-4.819-15.33-13.69-19.094-26.365
						l-3.169-10.676c-3.759-12.665-3.219-23.604,1.613-32.514c4.83-8.91,13.7-15.335,26.365-19.095l8.165-2.424
						c12.656-3.756,23.596-3.215,32.51,1.612c8.918,4.841,15.341,13.711,19.099,26.366l3.171,10.676
						c3.759,12.666,3.217,23.606-1.613,32.515c-4.829,8.909-13.7,15.333-26.365,19.095l-8.165,2.424c-0.002,0-0.002,0-0.002,0
						C1874.59,2035.091,1869.378,2035.913,1864.525,2035.913z M1877.073,1942.708c-4.425,0-9.207,0.758-14.323,2.277l-8.165,2.424
						c-11.5,3.415-19.49,9.125-23.743,16.969c-4.252,7.844-4.677,17.654-1.26,29.157l3.169,10.676
						c3.417,11.512,9.125,19.501,16.967,23.744c7.84,4.257,17.647,4.68,29.16,1.261l0.626,2.114l-0.626-2.114l8.165-2.424
						c11.504-3.416,19.492-9.125,23.745-16.968c4.252-7.844,4.677-17.654,1.26-29.158l-3.172-10.676
						c-3.411-11.494-9.121-19.483-16.971-23.744C1887.55,1943.888,1882.589,1942.708,1877.073,1942.708z M1812.169,1929.826
						c-0.943,0-1.815-0.609-2.106-1.554l-26.126-84.481c-0.002-0.008-0.007-0.016-0.009-0.024
						c-3.232-10.885-11.537-39.354-11.537-39.354c-0.168-0.573-0.095-1.19,0.2-1.708c0.297-0.519,0.79-0.896,1.367-1.044
						c0.269-0.069,27.033-6.946,37.762-10.132c16.842-5.001,31.455-12.164,43.431-21.289c11.847-9.016,20.143-20.509,24.66-34.162
						c4.519-13.642,3.99-30.056-1.574-48.788c-4.082-13.755-11.11-25.049-20.885-33.569c-9.799-8.537-21.536-14.209-34.883-16.856
						c-13.386-2.655-27.595-1.794-42.249,2.559c-11.377,3.378-21.59,8.652-30.353,15.676c-8.789,7.053-16.34,15.377-22.442,24.738
						c-4.81,7.622-10.718,20.313-10.776,20.44c-0.508,1.096-1.804,1.581-2.911,1.079l-70.111-31.816
						c-1.001-0.454-1.514-1.576-1.204-2.63c0.123-0.423,3.116-10.495,9.338-21.972c10.557-20.117,24.989-37.796,42.88-52.518
						c17.916-14.736,38.759-25.699,61.95-32.585c29.123-8.648,57.784-9.814,85.183-3.468c27.381,6.342,51.708,18.812,72.3,37.06
						c20.625,18.289,35.346,41.917,43.752,70.229c6.266,21.102,8.677,41.015,7.166,59.185c-1.511,18.204-6.438,35.107-14.641,50.24
						c-8.184,15.095-19.111,28.615-32.482,40.183c-13.311,11.511-28.219,21.179-45.576,29.557c-0.706,0.274-1.307,0.513-1.826,0.722
						l18.541,62.331c0.17,0.566,0.103,1.175-0.181,1.692s-0.764,0.898-1.333,1.059l-74.727,21.114
						C1812.567,1929.8,1812.367,1929.826,1812.169,1929.826z M1788.152,1842.501l25.487,82.414l70.505-19.922l-18.489-62.159
						c-0.022-0.068-0.039-0.137-0.052-0.206c0-0.003,0.007-0.002-0.002-0.007c-0.215-1.123,0.467-2.236,1.585-2.542
						c0.056-0.015,0.112-0.028,0.166-0.039c0.239-0.086,0.639-0.25,1.12-0.443c0.622-0.25,1.363-0.547,2.084-0.82
						c16.825-8.13,31.414-17.589,44.428-28.843c12.966-11.219,23.562-24.324,31.492-38.95c7.911-14.593,12.663-30.913,14.125-48.504
						c1.464-17.623-0.891-36.991-7.002-57.565c-8.167-27.511-22.449-50.451-42.447-68.184
						c-20.037-17.757-43.713-29.891-70.371-36.065c-26.651-6.172-54.556-5.028-82.932,3.4
						c-22.623,6.717-42.947,17.403-60.404,31.762c-17.434,14.346-31.494,31.569-41.79,51.188c-4.489,8.279-7.28,15.942-8.415,19.322
						l66.345,30.108c1.884-3.939,6.268-12.867,10.131-18.988c6.375-9.78,14.241-18.451,23.396-25.797
						c9.211-7.383,19.929-12.922,31.858-16.464c15.35-4.558,30.273-5.451,44.359-2.656c14.114,2.799,26.535,8.807,36.924,17.857
						c10.415,9.078,17.891,21.068,22.216,35.638c5.824,19.612,6.339,36.916,1.531,51.429c-4.802,14.513-13.608,26.72-26.174,36.284
						c-12.402,9.45-27.491,16.855-44.85,22.008c-8.981,2.667-29.037,7.881-35.712,9.606
						C1779.266,1812.227,1785.461,1833.44,1788.152,1842.501z"/>
				</g>
			</g>
			<g>
				<g>
					<path style="fill:#FFFFFF;" d="M1959.026,1238.594c2.448-7.233,8.934-26.092,8.934-26.092s17.49,6.658,24.729,9.109
						c11.407,3.862,22.292,5.613,32.654,5.239c10.36-0.367,19.572-3.529,27.636-9.486c8.062-5.95,14.262-15.33,18.596-28.132
						c3.201-9.457,3.732-18.582,1.591-27.376c-2.143-8.787-6.472-16.613-12.99-23.472c-6.517-6.859-14.785-11.984-24.803-15.375
						c-7.794-2.638-15.571-3.716-23.326-3.244c-7.764,0.475-15.226,2.137-22.389,4.982c-5.775,2.392-14.045,7.14-14.045,7.14
						l-26.17-44.693c0,0,5.573-4.414,13.394-8.28c13.502-6.9,27.963-10.924,43.396-12.06c15.423-1.132,30.791,0.886,46.097,6.068
						c19.201,6.5,35.039,16.746,47.515,30.74c12.477,13.994,20.809,29.922,25,47.776c4.188,17.861,3.128,36.111-3.182,54.751
						c-4.712,13.918-10.967,25.524-18.767,34.82c-7.802,9.302-16.825,16.483-27.065,21.543c-10.249,5.064-21.223,8.168-32.931,9.322
						c-11.716,1.151-23.502,0.668-36.121-1.438c-1.201-0.311-2.51-0.584-2.49-0.634l-14.449,42.752l-49.251-17.405
						L1959.026,1238.594z M1937.331,1378.264c-8.073-2.733-13.535-6.981-16.384-12.758c-2.859-5.773-2.916-12.69-0.182-20.765
						l2.402-7.096c2.731-8.067,6.979-13.528,12.758-16.384c5.77-2.852,12.69-2.915,20.764-0.182l5.427,1.837
						c8.067,2.731,13.526,6.985,16.383,12.758c2.85,5.777,2.913,12.697,0.182,20.765l-2.402,7.096
						c-2.733,8.074-6.988,13.532-12.758,16.384c-5.779,2.856-12.697,2.913-20.764,0.182L1937.331,1378.264z"/>
				</g>
				<g>
					<path style="fill:#EFBC73;" d="M1942.361,1372.185c-3.645,0-7.562-0.705-11.724-2.113l-5.426-1.837
						c-8.615-2.916-14.553-7.583-17.654-13.87c-3.111-6.282-3.213-13.835-0.295-22.448l2.403-7.096
						c2.913-8.606,7.579-14.545,13.868-17.653c6.287-3.107,13.843-3.208,22.449-0.294l5.426,1.837
						c8.6,2.912,14.54,7.578,17.654,13.868c3.105,6.3,3.204,13.851,0.295,22.449l-2.403,7.096
						c-2.915,8.607-7.581,14.546-13.868,17.654C1949.839,1371.382,1946.254,1372.185,1942.361,1372.185z M1934.271,1309.174
						c-3.223,0-6.158,0.649-8.783,1.946c-5.204,2.571-9.123,7.656-11.646,15.114l-2.403,7.097
						c-2.528,7.463-2.504,13.882,0.071,19.079c2.564,5.203,7.65,9.121,15.113,11.647l0,0l5.426,1.837
						c7.461,2.525,13.884,2.5,19.081-0.07c5.202-2.571,9.121-7.656,11.646-15.115l2.403-7.096
						c2.521-7.451,2.498-13.871-0.071-19.082c-2.575-5.203-7.661-9.121-15.113-11.644l-5.426-1.837
						C1940.875,1309.8,1937.434,1309.174,1934.271,1309.174z M1978.426,1302.64c-0.248,0-0.497-0.042-0.734-0.126l-49.251-17.405
						c-1.128-0.399-1.733-1.625-1.363-2.762l18.437-56.555c0.004-0.007,0.006-0.016,0.009-0.023
						c2.45-7.236,8.938-26.103,8.938-26.103c0.194-0.565,0.609-1.026,1.15-1.279c0.538-0.254,1.161-0.277,1.718-0.064
						c0.174,0.066,17.535,6.671,24.651,9.081c11.117,3.763,21.835,5.481,31.869,5.125c9.859-0.349,18.743-3.397,26.406-9.057
						c7.654-5.649,13.649-14.755,17.817-27.066c3.051-9.009,3.568-17.806,1.537-26.147c-2.041-8.37-6.227-15.932-12.445-22.475
						c-6.238-6.564-14.284-11.546-23.911-14.805c-7.476-2.531-15.037-3.584-22.487-3.132c-7.491,0.459-14.794,2.084-21.708,4.831
						c-5.544,2.297-13.681,6.956-13.763,7.003c-1.051,0.601-2.388,0.246-3.001-0.798l-26.169-44.693
						c-0.553-0.948-0.327-2.16,0.534-2.843c0.235-0.186,5.848-4.604,13.787-8.529c13.688-6.994,28.57-11.131,44.211-12.283
						c15.649-1.15,31.462,0.929,46.966,6.178c19.477,6.594,35.779,17.146,48.454,31.362c12.663,14.204,21.243,30.603,25.502,48.74
						c4.263,18.184,3.174,37.012-3.24,55.961c-4.78,14.114-11.229,26.069-19.167,35.531c-7.958,9.492-17.305,16.928-27.776,22.102
						c-10.432,5.155-21.768,8.365-33.694,9.54c-11.844,1.164-23.85,0.686-36.7-1.458c-0.252-0.062-0.482-0.118-0.691-0.168
						l-13.795,40.818c-0.189,0.559-0.594,1.019-1.124,1.277C1979.087,1302.566,1978.757,1302.64,1978.426,1302.64z
						 M1931.937,1281.668l45.115,15.943l13.735-40.634c0.288-0.855,1.068-1.446,1.97-1.494c0.336-0.019,0.657,0.04,0.956,0.162
						c0.164,0.043,0.422,0.103,0.73,0.176c0.444,0.105,0.969,0.23,1.475,0.362c12.273,2.04,23.9,2.503,35.353,1.379
						c11.394-1.123,22.218-4.187,32.17-9.105c9.922-4.902,18.788-11.962,26.352-20.983c7.586-9.041,13.765-20.518,18.369-34.111
						c6.145-18.157,7.198-36.171,3.124-53.54c-4.089-17.413-12.331-33.163-24.498-46.812c-12.163-13.64-27.834-23.773-46.577-30.119
						c-14.947-5.06-30.172-7.064-45.231-5.958c-15.051,1.108-29.367,5.087-42.553,11.825c-5.172,2.557-9.364,5.379-11.498,6.908
						l24.076,41.119c2.818-1.561,8.197-4.454,12.396-6.193c7.379-2.932,15.139-4.658,23.097-5.145
						c8.023-0.488,16.151,0.642,24.169,3.356c10.314,3.492,18.958,8.857,25.693,15.944c6.757,7.109,11.308,15.342,13.535,24.469
						c2.231,9.167,1.677,18.791-1.645,28.604c-4.463,13.181-10.981,23.005-19.376,29.199c-8.391,6.198-18.101,9.534-28.867,9.915
						c-10.548,0.381-21.818-1.419-33.438-5.354c-5.689-1.926-17.776-6.475-22.677-8.329c-1.77,5.149-6.244,18.178-8.186,23.919
						L1931.937,1281.668z"/>
				</g>
			</g>
			<g>
				<g>
					<path style="fill:#FFFFFF;" d="M561.834,1691.716c3.443-10.17,12.562-36.689,12.562-36.689s24.593,9.362,34.773,12.808
						c16.04,5.43,31.345,7.893,45.916,7.367c14.567-0.516,27.52-4.963,38.86-13.339c11.336-8.367,20.054-21.556,26.148-39.557
						c4.501-13.297,5.247-26.128,2.237-38.493c-3.013-12.356-9.1-23.36-18.265-33.005c-9.164-9.644-20.79-16.851-34.876-21.619
						c-10.959-3.71-21.894-5.224-32.8-4.562c-10.917,0.668-21.409,3.005-31.482,7.005c-8.12,3.363-19.749,10.039-19.749,10.039
						l-36.798-62.843c0,0,7.836-6.207,18.834-11.643c18.985-9.702,39.32-15.36,61.019-16.958
						c21.687-1.592,43.295,1.246,64.818,8.533c26.999,9.14,49.269,23.548,66.812,43.224c17.543,19.677,29.26,42.073,35.153,67.178
						c5.889,25.114,4.398,50.777-4.475,76.986c-6.625,19.57-15.421,35.89-26.388,48.961c-10.97,13.08-23.658,23.177-38.057,30.292
						c-14.411,7.121-29.841,11.486-46.305,13.108c-16.473,1.619-33.046,0.939-50.791-2.022c-1.688-0.438-3.529-0.822-3.501-0.891
						l-20.317,60.114l-69.253-24.473L561.834,1691.716z M531.328,1888.108c-11.352-3.843-19.031-9.816-23.037-17.938
						c-4.019-8.118-4.1-17.844-0.256-29.198l3.378-9.978c3.84-11.344,9.813-19.022,17.939-23.037
						c8.113-4.01,17.844-4.099,29.197-0.256l7.63,2.583c11.344,3.84,19.018,9.822,23.037,17.939
						c4.007,8.123,4.096,17.853,0.256,29.197l-3.378,9.978c-3.844,11.353-9.825,19.028-17.94,23.038
						c-8.126,4.016-17.853,4.096-29.196,0.255L531.328,1888.108z"/>
				</g>
				<g>
					<path style="fill:#EFBC73;" d="M538.397,1878.663c-5.03,0-10.438-0.974-16.196-2.923l-7.631-2.583
						c-11.877-4.021-20.054-10.43-24.307-19.052c-4.265-8.611-4.388-19.001-0.368-30.88l3.378-9.978
						c4.016-11.867,10.428-20.046,19.051-24.306c8.623-4.262,19.014-4.386,30.88-0.368l7.631,2.583
						c11.857,4.014,20.033,10.423,24.307,19.049c4.259,8.633,4.382,19.023,0.368,30.882l-3.378,9.978
						c-4.018,11.868-10.428,20.046-19.051,24.307C548.641,1877.566,543.732,1878.663,538.397,1878.663z M515.982,1868.98
						l7.631,2.583c10.723,3.63,19.979,3.58,27.513-0.144c7.538-3.724,13.201-11.048,16.829-21.768l3.378-9.978
						c3.626-10.712,3.576-19.97-0.144-27.515c-3.733-7.538-11.058-13.2-21.766-16.826l-7.631-2.583
						c-10.723-3.63-19.977-3.58-27.513,0.144c-7.54,3.724-13.201,11.047-16.829,21.767l-3.378,9.978
						c-3.632,10.729-3.583,19.985,0.144,27.512C497.933,1859.688,505.255,1865.348,515.982,1868.98L515.982,1868.98z
						 M589.112,1780.877c-0.248,0-0.497-0.042-0.734-0.126l-69.254-24.473c-1.128-0.399-1.733-1.625-1.363-2.762l25.924-79.523
						c0.004-0.008,0.006-0.016,0.009-0.023c3.445-10.174,12.568-36.699,12.568-36.699c0.194-0.565,0.609-1.027,1.15-1.28
						c0.538-0.254,1.163-0.277,1.718-0.064c0.245,0.094,24.673,9.387,34.694,12.78c15.729,5.325,30.895,7.769,45.13,7.252
						c14.047-0.498,26.708-4.841,37.63-12.909c10.914-8.056,19.449-21.006,25.368-38.49c4.345-12.832,5.079-25.369,2.183-37.264
						c-2.907-11.925-8.869-22.694-17.72-32.008c-8.873-9.336-20.306-16.419-33.983-21.049c-10.624-3.596-21.374-5.089-31.961-4.451
						c-10.626,0.651-20.989,2.957-30.801,6.854c-7.867,3.259-19.35,9.836-19.464,9.902c-1.053,0.603-2.388,0.247-3.001-0.798
						l-36.797-62.843c-0.553-0.948-0.327-2.16,0.534-2.843c0.327-0.259,8.145-6.415,19.225-11.891
						c19.148-9.785,39.96-15.57,61.834-17.181c21.885-1.608,43.997,1.301,65.686,8.643c27.239,9.221,50.033,23.973,67.751,43.846
						c17.71,19.861,29.705,42.787,35.654,68.142c5.958,25.407,4.433,51.716-4.532,78.197c-6.683,19.739-15.694,36.451-26.787,49.672
						c-11.112,13.25-24.156,23.63-38.767,30.851c-14.575,7.201-30.409,11.684-47.068,13.326c-16.575,1.629-33.376,0.962-51.37-2.041
						c-0.655-0.163-1.216-0.298-1.705-0.415l-19.66,58.169c-0.189,0.559-0.594,1.019-1.124,1.277
						C589.773,1780.802,589.443,1780.877,589.112,1780.877z M522.621,1752.837l65.118,23.011l19.602-57.997
						c0.289-0.852,1.064-1.441,1.959-1.493c0.355-0.023,0.7,0.045,1.014,0.182c0.228,0.063,0.629,0.155,1.109,0.269
						c0.618,0.147,1.352,0.322,2.06,0.505c17.41,2.897,33.832,3.552,50.022,1.962c16.125-1.59,31.449-5.927,45.543-12.891
						c14.062-6.949,26.626-16.952,37.344-29.732c10.74-12.8,19.482-29.034,25.988-48.251c8.697-25.689,10.182-51.183,4.416-75.776
						c-5.779-24.63-17.438-46.908-34.651-66.214c-17.206-19.296-39.368-33.63-65.873-42.604
						c-21.129-7.153-42.647-9.987-63.951-8.422c-21.284,1.567-41.53,7.193-60.176,16.722c-7.896,3.902-14.178,8.244-16.941,10.262
						l34.706,59.274c3.66-2.043,11.827-6.491,18.099-9.089c10.277-4.082,21.096-6.49,32.19-7.169
						c11.166-0.679,22.479,0.895,33.643,4.674c14.364,4.862,26.398,12.328,35.766,22.189c9.39,9.879,15.718,21.318,18.81,34.001
						c3.096,12.722,2.325,26.086-2.291,39.722c-6.214,18.354-15.272,32.022-26.927,40.624
						c-11.651,8.606-25.138,13.238-40.092,13.768c-14.732,0.539-30.461-1.985-46.699-7.482c-8.343-2.824-26.51-9.676-32.719-12.028
						c-2.239,6.514-8.966,26.096-11.816,34.515L522.621,1752.837z"/>
				</g>
			</g>
		</g>
	</g>
</g>
</svg>
